<svg xmlns="http://www.w3.org/2000/svg"
     viewBox="0 0 360 360">
  <path fill="hsl(230deg 90% 60% / 1)"
        d="M 177.58,303.43
           C 177.58,303.43 158.74,229.26 158.74,229.26
             158.07,226.64 155.44,225.03 152.80,225.64
             152.80,225.64 74.35,243.84 74.35,243.84
             71.86,244.57 70.06,241.46 71.94,239.66
             71.94,239.66 126.80,183.48 126.80,183.48
             128.69,181.55 128.69,178.46 126.80,176.53
             126.80,176.53 71.89,120.47 71.89,120.47
             70.01,118.67 71.80,115.57 74.30,116.29
             74.30,116.29 150.39,135.67 150.39,135.67
             153.01,136.34 155.68,134.79 156.41,132.20
             156.41,132.20 177.58,56.57 177.58,56.57
             178.20,54.04 181.79,54.04 182.41,56.57
             182.41,56.57 200.94,130.56 200.94,130.56
             201.59,133.18 204.22,134.79 206.86,134.19
             206.86,134.19 285.70,116.29 285.70,116.29
             288.19,115.57 289.98,118.68 288.10,120.48
             288.10,120.48 233.20,176.53 233.20,176.53
             231.31,178.46 231.30,181.55 233.19,183.48
             233.19,183.48 288.06,239.66 288.06,239.66
             289.93,241.46 288.14,244.57 285.64,243.84
             285.64,243.84 209.61,224.34 209.61,224.34
             206.99,223.66 204.32,225.21 203.59,227.81
             203.59,227.81 182.41,303.43 182.41,303.43
             181.79,305.96 178.20,305.96 177.58,303.43M 183.85,314.29
           C 183.85,314.29 266.18,336.35 266.18,336.35
             268.83,337.06 271.56,335.49 272.27,332.84
             272.27,332.84 294.32,250.53 294.32,250.53
             295.00,248.00 296.33,245.70 298.18,243.84
             298.18,243.84 358.04,183.99 358.04,183.99
             359.97,182.05 359.98,178.93 358.06,176.98
             358.06,176.98 298.42,116.09 298.42,116.09
             296.64,114.27 295.35,112.03 294.68,109.57
             294.68,109.57 272.27,27.16 272.27,27.16
             271.56,24.51 268.83,22.94 266.18,23.65
             266.18,23.65 183.85,45.71 183.85,45.71
             181.33,46.39 178.66,46.39 176.14,45.71
             176.14,45.71 93.81,23.65 93.81,23.65
             91.16,22.94 88.44,24.51 87.73,27.16
             87.73,27.16 65.63,109.63 65.63,109.63
             64.95,112.16 63.62,114.46 61.78,116.31
             61.78,116.31 1.96,176.13 1.96,176.13
             0.03,178.06 0.02,181.19 1.94,183.13
             1.94,183.13 61.55,243.97 61.55,243.97
             63.34,245.78 64.62,248.03 65.29,250.48
             65.29,250.48 87.73,332.84 87.73,332.84
             88.44,335.49 91.16,337.06 93.81,336.35
             93.81,336.35 176.14,314.29 176.14,314.29
             178.66,313.61 181.33,313.61 183.85,314.29" />
</svg>
