<?xml version="1.0" encoding="utf-8"?>
<svg xmlns="http://www.w3.org/2000/svg"
     width="256" height="256" viewBox="0 0 800 800"
     version="1.2" baseProfile="tiny-ps">
  <title>Gunjo Foundation, Inc.</title>
  <path fill="hsl(230deg 90% 60% / 1)"
        d="M 395.94,605.75
           C 395.94,605.75 364.60,482.07 364.60,482.07
             363.45,477.70 359.08,475.02 354.64,476.09
             354.64,476.09 223.91,506.44 223.91,506.44
             219.77,507.59 216.78,502.45 219.92,499.46
             219.92,499.46 311.34,405.82 311.34,405.82
             314.48,402.61 314.48,397.39 311.34,394.18
             311.34,394.18 219.85,300.77 219.85,300.77
             216.70,297.78 219.69,292.64 223.83,293.79
             223.83,293.79 350.65,326.13 350.65,326.13
             355.02,327.20 359.46,324.67 360.69,320.31
             360.69,320.31 395.94,194.25 395.94,194.25
             397.01,190.04 402.99,190.04 403.98,194.25
             403.98,194.25 434.87,317.62 434.87,317.62
             436.02,321.99 440.38,324.67 444.75,323.68
             444.75,323.68 576.17,293.79 576.17,293.79
             580.31,292.64 583.30,297.78 580.15,300.77
             580.15,300.77 488.66,394.18 488.66,394.18
             485.52,397.39 485.52,402.61 488.66,405.82
             488.66,405.82 580.08,499.46 580.08,499.46
             583.22,502.45 580.23,507.59 576.09,506.44
             576.09,506.44 449.35,473.87 449.35,473.87
             444.98,472.80 440.54,475.33 439.31,479.69
             439.31,479.69 403.98,605.75 403.98,605.75
             402.99,609.96 397.01,609.96 395.94,605.75M 406.44,623.83
           C 406.44,623.83 543.60,660.61 543.60,660.61
             548.05,661.76 552.57,659.16 553.79,654.71
             553.79,654.71 590.50,517.55 590.50,517.55
             591.65,513.33 593.87,509.50 596.93,506.44
             596.93,506.44 696.70,406.67 696.70,406.67
             699.92,403.45 700.00,398.24 696.78,394.94
             696.78,394.94 597.39,293.49 597.39,293.49
             594.41,290.42 592.26,286.74 591.11,282.61
             591.11,282.61 553.79,145.29 553.79,145.29
             552.57,140.84 548.05,138.24 543.60,139.39
             543.60,139.39 406.44,176.17 406.44,176.17
             402.22,177.32 397.78,177.32 393.56,176.17
             393.56,176.17 256.32,139.39 256.32,139.39
             251.95,138.24 247.43,140.84 246.21,145.29
             246.21,145.29 209.35,282.68 209.35,282.68
             208.28,286.90 206.05,290.80 202.99,293.87
             202.99,293.87 103.30,393.56 103.30,393.56
             100.08,396.78 100.00,401.99 103.22,405.21
             103.22,405.21 202.61,506.59 202.61,506.59
             205.59,509.66 207.74,513.41 208.81,517.47
             208.81,517.47 246.21,654.71 246.21,654.71
             247.43,659.16 251.95,661.76 256.32,660.61
             256.32,660.61 393.56,623.83 393.56,623.83
             397.78,622.68 402.22,622.68 406.44,623.83" />
</svg>